<mxfile host="app.diagrams.net" modified="2020-08-25T12:10:49.263Z" agent="5.0 (Windows NT 10.0; Win64; x64) AppleWebKit/537.36 (KHTML, like Gecko) Chrome/84.0.4147.135 Safari/537.36" etag="GpM7rt8bFaUUghzxR37s" version="13.6.4" type="github">
  <diagram id="8KDGwqiMt7RfISEu8AWx" name="Page-1">
    <mxGraphModel dx="1278" dy="548" grid="1" gridSize="10" guides="1" tooltips="1" connect="1" arrows="1" fold="1" page="1" pageScale="1" pageWidth="827" pageHeight="1169" math="0" shadow="0">
      <root>
        <mxCell id="0" />
        <mxCell id="1" parent="0" />
        <mxCell id="cfMRhUaMidTA4xqnxmpt-50" style="edgeStyle=orthogonalEdgeStyle;rounded=0;orthogonalLoop=1;jettySize=auto;html=1;exitX=0.5;exitY=1;exitDx=0;exitDy=0;exitPerimeter=0;entryX=0.5;entryY=0;entryDx=0;entryDy=0;" parent="1" source="cfMRhUaMidTA4xqnxmpt-2" target="cfMRhUaMidTA4xqnxmpt-11" edge="1">
          <mxGeometry relative="1" as="geometry" />
        </mxCell>
        <mxCell id="cfMRhUaMidTA4xqnxmpt-51" style="edgeStyle=orthogonalEdgeStyle;rounded=0;orthogonalLoop=1;jettySize=auto;html=1;exitX=1;exitY=0.5;exitDx=0;exitDy=0;exitPerimeter=0;entryX=0;entryY=0.5;entryDx=0;entryDy=0;" parent="1" source="cfMRhUaMidTA4xqnxmpt-2" target="cfMRhUaMidTA4xqnxmpt-30" edge="1">
          <mxGeometry relative="1" as="geometry" />
        </mxCell>
        <mxCell id="cfMRhUaMidTA4xqnxmpt-2" value="Start" style="strokeWidth=2;html=1;shape=mxgraph.flowchart.start_1;whiteSpace=wrap;" parent="1" vertex="1">
          <mxGeometry x="70" y="70" width="100" height="60" as="geometry" />
        </mxCell>
        <mxCell id="cfMRhUaMidTA4xqnxmpt-53" style="edgeStyle=orthogonalEdgeStyle;rounded=0;orthogonalLoop=1;jettySize=auto;html=1;exitX=1;exitY=0.5;exitDx=0;exitDy=0;exitPerimeter=0;entryX=0;entryY=0.5;entryDx=0;entryDy=0;" parent="1" source="cfMRhUaMidTA4xqnxmpt-3" target="cfMRhUaMidTA4xqnxmpt-7" edge="1">
          <mxGeometry relative="1" as="geometry" />
        </mxCell>
        <mxCell id="cfMRhUaMidTA4xqnxmpt-55" style="edgeStyle=orthogonalEdgeStyle;rounded=0;orthogonalLoop=1;jettySize=auto;html=1;exitX=0.5;exitY=1;exitDx=0;exitDy=0;exitPerimeter=0;entryX=0.5;entryY=0;entryDx=0;entryDy=0;" parent="1" source="cfMRhUaMidTA4xqnxmpt-3" target="cfMRhUaMidTA4xqnxmpt-9" edge="1">
          <mxGeometry relative="1" as="geometry" />
        </mxCell>
        <mxCell id="cfMRhUaMidTA4xqnxmpt-3" value="Has user account?" style="strokeWidth=2;html=1;shape=mxgraph.flowchart.decision;whiteSpace=wrap;" parent="1" vertex="1">
          <mxGeometry x="390" y="50" width="100" height="100" as="geometry" />
        </mxCell>
        <mxCell id="cfMRhUaMidTA4xqnxmpt-93" style="edgeStyle=orthogonalEdgeStyle;rounded=0;orthogonalLoop=1;jettySize=auto;html=1;exitX=0.5;exitY=1;exitDx=0;exitDy=0;entryX=0.5;entryY=0;entryDx=0;entryDy=0;" parent="1" source="cfMRhUaMidTA4xqnxmpt-7" target="cfMRhUaMidTA4xqnxmpt-14" edge="1">
          <mxGeometry relative="1" as="geometry">
            <Array as="points">
              <mxPoint x="590" y="300" />
              <mxPoint x="440" y="300" />
            </Array>
          </mxGeometry>
        </mxCell>
        <mxCell id="cfMRhUaMidTA4xqnxmpt-7" value="Create user account" style="rounded=1;whiteSpace=wrap;html=1;absoluteArcSize=1;arcSize=14;strokeWidth=2;fillColor=#ffe6cc;strokeColor=#d79b00;" parent="1" vertex="1">
          <mxGeometry x="540" y="50" width="100" height="100" as="geometry" />
        </mxCell>
        <mxCell id="cfMRhUaMidTA4xqnxmpt-57" style="edgeStyle=orthogonalEdgeStyle;rounded=0;orthogonalLoop=1;jettySize=auto;html=1;exitX=0.5;exitY=1;exitDx=0;exitDy=0;entryX=0.5;entryY=0;entryDx=0;entryDy=0;" parent="1" source="cfMRhUaMidTA4xqnxmpt-9" target="cfMRhUaMidTA4xqnxmpt-14" edge="1">
          <mxGeometry relative="1" as="geometry">
            <Array as="points">
              <mxPoint x="440" y="310" />
              <mxPoint x="440" y="310" />
            </Array>
          </mxGeometry>
        </mxCell>
        <mxCell id="cfMRhUaMidTA4xqnxmpt-9" value="Sign in" style="rounded=1;whiteSpace=wrap;html=1;absoluteArcSize=1;arcSize=14;strokeWidth=2;fillColor=#ffe6cc;strokeColor=#d79b00;" parent="1" vertex="1">
          <mxGeometry x="390" y="180" width="100" height="100" as="geometry" />
        </mxCell>
        <mxCell id="cfMRhUaMidTA4xqnxmpt-75" style="edgeStyle=orthogonalEdgeStyle;rounded=0;orthogonalLoop=1;jettySize=auto;html=1;exitX=0.5;exitY=0;exitDx=0;exitDy=0;entryX=0.5;entryY=1;entryDx=0;entryDy=0;entryPerimeter=0;" parent="1" source="cfMRhUaMidTA4xqnxmpt-10" target="cfMRhUaMidTA4xqnxmpt-43" edge="1">
          <mxGeometry relative="1" as="geometry" />
        </mxCell>
        <mxCell id="cfMRhUaMidTA4xqnxmpt-10" value="Start exam" style="rounded=1;whiteSpace=wrap;html=1;absoluteArcSize=1;arcSize=14;strokeWidth=2;fillColor=#ffe6cc;strokeColor=#d79b00;" parent="1" vertex="1">
          <mxGeometry x="875" y="350" width="100" height="100" as="geometry" />
        </mxCell>
        <mxCell id="cfMRhUaMidTA4xqnxmpt-59" style="edgeStyle=orthogonalEdgeStyle;rounded=0;orthogonalLoop=1;jettySize=auto;html=1;exitX=1;exitY=0.5;exitDx=0;exitDy=0;entryX=0;entryY=0.5;entryDx=0;entryDy=0;" parent="1" source="cfMRhUaMidTA4xqnxmpt-11" target="cfMRhUaMidTA4xqnxmpt-9" edge="1">
          <mxGeometry relative="1" as="geometry" />
        </mxCell>
        <mxCell id="cfMRhUaMidTA4xqnxmpt-11" value="System sign in page" style="rounded=1;whiteSpace=wrap;html=1;absoluteArcSize=1;arcSize=14;strokeWidth=2;fillColor=#ffe6cc;strokeColor=#d79b00;" parent="1" vertex="1">
          <mxGeometry x="70" y="180" width="100" height="100" as="geometry" />
        </mxCell>
        <mxCell id="cfMRhUaMidTA4xqnxmpt-110" style="edgeStyle=orthogonalEdgeStyle;rounded=0;orthogonalLoop=1;jettySize=auto;html=1;exitX=0.25;exitY=0;exitDx=0;exitDy=0;entryX=0.25;entryY=1;entryDx=0;entryDy=0;" parent="1" source="cfMRhUaMidTA4xqnxmpt-13" target="cfMRhUaMidTA4xqnxmpt-14" edge="1">
          <mxGeometry relative="1" as="geometry" />
        </mxCell>
        <mxCell id="cfMRhUaMidTA4xqnxmpt-13" value="Add profile picture, name and phone number" style="rounded=1;whiteSpace=wrap;html=1;absoluteArcSize=1;arcSize=14;strokeWidth=2;fillColor=#ffe6cc;strokeColor=#d79b00;" parent="1" vertex="1">
          <mxGeometry x="390" y="525" width="100" height="100" as="geometry" />
        </mxCell>
        <mxCell id="cfMRhUaMidTA4xqnxmpt-60" style="edgeStyle=orthogonalEdgeStyle;rounded=0;orthogonalLoop=1;jettySize=auto;html=1;exitX=1;exitY=0.5;exitDx=0;exitDy=0;entryX=0;entryY=0.5;entryDx=0;entryDy=0;entryPerimeter=0;" parent="1" source="cfMRhUaMidTA4xqnxmpt-14" target="cfMRhUaMidTA4xqnxmpt-48" edge="1">
          <mxGeometry relative="1" as="geometry" />
        </mxCell>
        <mxCell id="cfMRhUaMidTA4xqnxmpt-98" style="edgeStyle=orthogonalEdgeStyle;rounded=0;orthogonalLoop=1;jettySize=auto;html=1;exitX=0;exitY=0.5;exitDx=0;exitDy=0;entryX=1;entryY=0.5;entryDx=0;entryDy=0;entryPerimeter=0;" parent="1" source="cfMRhUaMidTA4xqnxmpt-14" target="cfMRhUaMidTA4xqnxmpt-49" edge="1">
          <mxGeometry relative="1" as="geometry" />
        </mxCell>
        <mxCell id="cfMRhUaMidTA4xqnxmpt-103" style="edgeStyle=orthogonalEdgeStyle;rounded=0;orthogonalLoop=1;jettySize=auto;html=1;exitX=0.5;exitY=1;exitDx=0;exitDy=0;entryX=0.5;entryY=0;entryDx=0;entryDy=0;" parent="1" source="cfMRhUaMidTA4xqnxmpt-14" target="cfMRhUaMidTA4xqnxmpt-13" edge="1">
          <mxGeometry relative="1" as="geometry" />
        </mxCell>
        <mxCell id="cfMRhUaMidTA4xqnxmpt-104" style="edgeStyle=orthogonalEdgeStyle;rounded=0;orthogonalLoop=1;jettySize=auto;html=1;exitX=0.5;exitY=1;exitDx=0;exitDy=0;entryX=0.5;entryY=0;entryDx=0;entryDy=0;entryPerimeter=0;" parent="1" source="cfMRhUaMidTA4xqnxmpt-14" target="cfMRhUaMidTA4xqnxmpt-102" edge="1">
          <mxGeometry relative="1" as="geometry" />
        </mxCell>
        <mxCell id="cfMRhUaMidTA4xqnxmpt-105" style="edgeStyle=orthogonalEdgeStyle;rounded=0;orthogonalLoop=1;jettySize=auto;html=1;exitX=0.5;exitY=1;exitDx=0;exitDy=0;entryX=0.5;entryY=0;entryDx=0;entryDy=0;entryPerimeter=0;" parent="1" source="cfMRhUaMidTA4xqnxmpt-14" target="cfMRhUaMidTA4xqnxmpt-38" edge="1">
          <mxGeometry relative="1" as="geometry" />
        </mxCell>
        <mxCell id="cfMRhUaMidTA4xqnxmpt-14" value="Profile page" style="rounded=1;whiteSpace=wrap;html=1;absoluteArcSize=1;arcSize=14;strokeWidth=2;fillColor=#ffe6cc;strokeColor=#d79b00;" parent="1" vertex="1">
          <mxGeometry x="390" y="350" width="100" height="100" as="geometry" />
        </mxCell>
        <mxCell id="cfMRhUaMidTA4xqnxmpt-85" style="edgeStyle=orthogonalEdgeStyle;rounded=0;orthogonalLoop=1;jettySize=auto;html=1;exitX=0.5;exitY=1;exitDx=0;exitDy=0;exitPerimeter=0;entryX=0.5;entryY=0;entryDx=0;entryDy=0;entryPerimeter=0;" parent="1" source="cfMRhUaMidTA4xqnxmpt-18" target="cfMRhUaMidTA4xqnxmpt-33" edge="1">
          <mxGeometry relative="1" as="geometry" />
        </mxCell>
        <mxCell id="cfMRhUaMidTA4xqnxmpt-86" style="edgeStyle=orthogonalEdgeStyle;rounded=0;orthogonalLoop=1;jettySize=auto;html=1;exitX=0;exitY=0.5;exitDx=0;exitDy=0;exitPerimeter=0;entryX=1;entryY=0.5;entryDx=0;entryDy=0;entryPerimeter=0;" parent="1" source="cfMRhUaMidTA4xqnxmpt-18" target="cfMRhUaMidTA4xqnxmpt-34" edge="1">
          <mxGeometry relative="1" as="geometry" />
        </mxCell>
        <mxCell id="cfMRhUaMidTA4xqnxmpt-18" value="Exam passed?" style="strokeWidth=2;html=1;shape=mxgraph.flowchart.decision;whiteSpace=wrap;" parent="1" vertex="1">
          <mxGeometry x="1030" y="630" width="100" height="100" as="geometry" />
        </mxCell>
        <mxCell id="cfMRhUaMidTA4xqnxmpt-73" style="edgeStyle=orthogonalEdgeStyle;rounded=0;orthogonalLoop=1;jettySize=auto;html=1;exitX=1;exitY=0.5;exitDx=0;exitDy=0;exitPerimeter=0;entryX=0;entryY=0.5;entryDx=0;entryDy=0;" parent="1" source="cfMRhUaMidTA4xqnxmpt-23" target="cfMRhUaMidTA4xqnxmpt-10" edge="1">
          <mxGeometry relative="1" as="geometry" />
        </mxCell>
        <mxCell id="cfMRhUaMidTA4xqnxmpt-23" value="&quot;1 new exam&quot;" style="strokeWidth=2;html=1;shape=mxgraph.flowchart.display;whiteSpace=wrap;fillColor=#dae8fc;strokeColor=#6c8ebf;" parent="1" vertex="1">
          <mxGeometry x="710" y="365" width="110" height="70" as="geometry" />
        </mxCell>
        <mxCell id="cfMRhUaMidTA4xqnxmpt-52" style="edgeStyle=orthogonalEdgeStyle;rounded=0;orthogonalLoop=1;jettySize=auto;html=1;exitX=1;exitY=0.5;exitDx=0;exitDy=0;entryX=0;entryY=0.5;entryDx=0;entryDy=0;entryPerimeter=0;" parent="1" source="cfMRhUaMidTA4xqnxmpt-30" target="cfMRhUaMidTA4xqnxmpt-3" edge="1">
          <mxGeometry relative="1" as="geometry" />
        </mxCell>
        <mxCell id="cfMRhUaMidTA4xqnxmpt-30" value="&lt;span&gt;Receives email with &lt;br&gt;link to exam&lt;/span&gt;" style="verticalLabelPosition=middle;verticalAlign=middle;html=1;shape=offPageConnector;rounded=0;size=0.5;fillColor=#e1d5e7;strokeColor=#9673a6;labelPosition=center;align=center;" parent="1" vertex="1">
          <mxGeometry x="230" y="60" width="110" height="80" as="geometry" />
        </mxCell>
        <mxCell id="cfMRhUaMidTA4xqnxmpt-31" value="Receives email with &lt;br&gt;certificate" style="verticalLabelPosition=middle;verticalAlign=middle;html=1;shape=offPageConnector;rounded=0;size=0.5;fillColor=#e1d5e7;strokeColor=#9673a6;labelPosition=center;align=center;" parent="1" vertex="1">
          <mxGeometry x="900" y="765" width="105" height="80" as="geometry" />
        </mxCell>
        <mxCell id="cfMRhUaMidTA4xqnxmpt-33" value="&quot;Exam not passed&quot;" style="strokeWidth=2;html=1;shape=mxgraph.flowchart.display;whiteSpace=wrap;fillColor=#dae8fc;strokeColor=#6c8ebf;" parent="1" vertex="1">
          <mxGeometry x="1030" y="775" width="100" height="60" as="geometry" />
        </mxCell>
        <mxCell id="cfMRhUaMidTA4xqnxmpt-91" style="edgeStyle=orthogonalEdgeStyle;rounded=0;orthogonalLoop=1;jettySize=auto;html=1;exitX=0.5;exitY=1;exitDx=0;exitDy=0;exitPerimeter=0;entryX=0.5;entryY=0;entryDx=0;entryDy=0;entryPerimeter=0;" parent="1" source="cfMRhUaMidTA4xqnxmpt-34" target="cfMRhUaMidTA4xqnxmpt-36" edge="1">
          <mxGeometry relative="1" as="geometry" />
        </mxCell>
        <mxCell id="cfMRhUaMidTA4xqnxmpt-92" style="edgeStyle=orthogonalEdgeStyle;rounded=0;orthogonalLoop=1;jettySize=auto;html=1;exitX=0.5;exitY=1;exitDx=0;exitDy=0;exitPerimeter=0;" parent="1" source="cfMRhUaMidTA4xqnxmpt-34" target="cfMRhUaMidTA4xqnxmpt-31" edge="1">
          <mxGeometry relative="1" as="geometry" />
        </mxCell>
        <mxCell id="cfMRhUaMidTA4xqnxmpt-34" value="&quot;Exam passed&quot;" style="strokeWidth=2;html=1;shape=mxgraph.flowchart.display;whiteSpace=wrap;fillColor=#dae8fc;strokeColor=#6c8ebf;" parent="1" vertex="1">
          <mxGeometry x="850" y="650" width="100" height="60" as="geometry" />
        </mxCell>
        <mxCell id="cfMRhUaMidTA4xqnxmpt-36" value="Certificate saved on profile page" style="strokeWidth=2;html=1;shape=mxgraph.flowchart.terminator;whiteSpace=wrap;fillColor=#f8cecc;strokeColor=#b85450;" parent="1" vertex="1">
          <mxGeometry x="765" y="765" width="110" height="50" as="geometry" />
        </mxCell>
        <mxCell id="cfMRhUaMidTA4xqnxmpt-38" value="Delete account" style="strokeWidth=2;html=1;shape=mxgraph.flowchart.terminator;whiteSpace=wrap;fillColor=#f8cecc;strokeColor=#b85450;" parent="1" vertex="1">
          <mxGeometry x="625" y="545" width="100" height="60" as="geometry" />
        </mxCell>
        <mxCell id="cfMRhUaMidTA4xqnxmpt-83" style="edgeStyle=orthogonalEdgeStyle;rounded=0;orthogonalLoop=1;jettySize=auto;html=1;exitX=0.5;exitY=1;exitDx=0;exitDy=0;entryX=0.5;entryY=0;entryDx=0;entryDy=0;entryPerimeter=0;" parent="1" source="cfMRhUaMidTA4xqnxmpt-39" target="cfMRhUaMidTA4xqnxmpt-40" edge="1">
          <mxGeometry relative="1" as="geometry" />
        </mxCell>
        <mxCell id="cfMRhUaMidTA4xqnxmpt-108" style="edgeStyle=orthogonalEdgeStyle;rounded=0;orthogonalLoop=1;jettySize=auto;html=1;exitX=0.25;exitY=1;exitDx=0;exitDy=0;entryX=0.75;entryY=1;entryDx=0;entryDy=0;" parent="1" source="cfMRhUaMidTA4xqnxmpt-39" target="cfMRhUaMidTA4xqnxmpt-14" edge="1">
          <mxGeometry relative="1" as="geometry">
            <Array as="points">
              <mxPoint x="1055" y="470" />
              <mxPoint x="465" y="470" />
            </Array>
          </mxGeometry>
        </mxCell>
        <mxCell id="cfMRhUaMidTA4xqnxmpt-39" value="Results page" style="rounded=1;whiteSpace=wrap;html=1;absoluteArcSize=1;arcSize=14;strokeWidth=2;fillColor=#ffe6cc;strokeColor=#d79b00;" parent="1" vertex="1">
          <mxGeometry x="1030" y="350" width="100" height="100" as="geometry" />
        </mxCell>
        <mxCell id="cfMRhUaMidTA4xqnxmpt-84" style="edgeStyle=orthogonalEdgeStyle;rounded=0;orthogonalLoop=1;jettySize=auto;html=1;exitX=0.5;exitY=1;exitDx=0;exitDy=0;exitPerimeter=0;entryX=0.5;entryY=0;entryDx=0;entryDy=0;entryPerimeter=0;" parent="1" source="cfMRhUaMidTA4xqnxmpt-40" target="cfMRhUaMidTA4xqnxmpt-18" edge="1">
          <mxGeometry relative="1" as="geometry" />
        </mxCell>
        <mxCell id="cfMRhUaMidTA4xqnxmpt-40" value="Display points and number of right (and wrong) answers" style="strokeWidth=2;html=1;shape=mxgraph.flowchart.display;whiteSpace=wrap;fillColor=#dae8fc;strokeColor=#6c8ebf;" parent="1" vertex="1">
          <mxGeometry x="1015" y="500" width="130" height="80" as="geometry" />
        </mxCell>
        <mxCell id="cfMRhUaMidTA4xqnxmpt-41" value="&lt;span&gt;Display exam result(s) and certificate(s)&lt;/span&gt;" style="strokeWidth=2;html=1;shape=mxgraph.flowchart.display;whiteSpace=wrap;fillColor=#dae8fc;strokeColor=#6c8ebf;" parent="1" vertex="1">
          <mxGeometry x="80" y="525" width="130" height="80" as="geometry" />
        </mxCell>
        <mxCell id="cfMRhUaMidTA4xqnxmpt-112" style="edgeStyle=orthogonalEdgeStyle;rounded=0;orthogonalLoop=1;jettySize=auto;html=1;exitX=0.75;exitY=0;exitDx=0;exitDy=0;entryX=0;entryY=0.75;entryDx=0;entryDy=0;" parent="1" source="cfMRhUaMidTA4xqnxmpt-42" target="cfMRhUaMidTA4xqnxmpt-14" edge="1">
          <mxGeometry relative="1" as="geometry" />
        </mxCell>
        <mxCell id="cfMRhUaMidTA4xqnxmpt-42" value="Download certificate(s) as PDF" style="rounded=1;whiteSpace=wrap;html=1;absoluteArcSize=1;arcSize=14;strokeWidth=2;fillColor=#ffe6cc;strokeColor=#d79b00;" parent="1" vertex="1">
          <mxGeometry x="250" y="525" width="100" height="100" as="geometry" />
        </mxCell>
        <mxCell id="cfMRhUaMidTA4xqnxmpt-76" style="edgeStyle=orthogonalEdgeStyle;rounded=0;orthogonalLoop=1;jettySize=auto;html=1;exitX=0.5;exitY=0;exitDx=0;exitDy=0;exitPerimeter=0;entryX=0.5;entryY=1;entryDx=0;entryDy=0;" parent="1" source="cfMRhUaMidTA4xqnxmpt-43" target="cfMRhUaMidTA4xqnxmpt-44" edge="1">
          <mxGeometry relative="1" as="geometry" />
        </mxCell>
        <mxCell id="cfMRhUaMidTA4xqnxmpt-43" value="Display question and answer options" style="strokeWidth=2;html=1;shape=mxgraph.flowchart.display;whiteSpace=wrap;fillColor=#dae8fc;strokeColor=#6c8ebf;" parent="1" vertex="1">
          <mxGeometry x="860" y="212.5" width="130" height="75" as="geometry" />
        </mxCell>
        <mxCell id="cfMRhUaMidTA4xqnxmpt-77" style="edgeStyle=orthogonalEdgeStyle;rounded=0;orthogonalLoop=1;jettySize=auto;html=1;exitX=1;exitY=0.5;exitDx=0;exitDy=0;entryX=0;entryY=0.5;entryDx=0;entryDy=0;entryPerimeter=0;" parent="1" source="cfMRhUaMidTA4xqnxmpt-44" target="cfMRhUaMidTA4xqnxmpt-45" edge="1">
          <mxGeometry relative="1" as="geometry" />
        </mxCell>
        <mxCell id="cfMRhUaMidTA4xqnxmpt-44" value="Choose answer option" style="rounded=1;whiteSpace=wrap;html=1;absoluteArcSize=1;arcSize=14;strokeWidth=2;fillColor=#ffe6cc;strokeColor=#d79b00;" parent="1" vertex="1">
          <mxGeometry x="875" y="50" width="100" height="100" as="geometry" />
        </mxCell>
        <mxCell id="cfMRhUaMidTA4xqnxmpt-78" style="edgeStyle=orthogonalEdgeStyle;rounded=0;orthogonalLoop=1;jettySize=auto;html=1;exitX=0.5;exitY=0;exitDx=0;exitDy=0;exitPerimeter=0;entryX=0.5;entryY=0;entryDx=0;entryDy=0;" parent="1" source="cfMRhUaMidTA4xqnxmpt-45" target="cfMRhUaMidTA4xqnxmpt-44" edge="1">
          <mxGeometry relative="1" as="geometry" />
        </mxCell>
        <mxCell id="cfMRhUaMidTA4xqnxmpt-79" style="edgeStyle=orthogonalEdgeStyle;rounded=0;orthogonalLoop=1;jettySize=auto;html=1;exitX=0.5;exitY=1;exitDx=0;exitDy=0;exitPerimeter=0;entryX=0.5;entryY=0;entryDx=0;entryDy=0;" parent="1" source="cfMRhUaMidTA4xqnxmpt-45" target="cfMRhUaMidTA4xqnxmpt-46" edge="1">
          <mxGeometry relative="1" as="geometry" />
        </mxCell>
        <mxCell id="cfMRhUaMidTA4xqnxmpt-45" value="Last question?" style="strokeWidth=2;html=1;shape=mxgraph.flowchart.decision;whiteSpace=wrap;" parent="1" vertex="1">
          <mxGeometry x="1030" y="50" width="100" height="100" as="geometry" />
        </mxCell>
        <mxCell id="cfMRhUaMidTA4xqnxmpt-82" style="edgeStyle=orthogonalEdgeStyle;rounded=0;orthogonalLoop=1;jettySize=auto;html=1;exitX=0.5;exitY=1;exitDx=0;exitDy=0;entryX=0.5;entryY=0;entryDx=0;entryDy=0;" parent="1" source="cfMRhUaMidTA4xqnxmpt-46" target="cfMRhUaMidTA4xqnxmpt-39" edge="1">
          <mxGeometry relative="1" as="geometry" />
        </mxCell>
        <mxCell id="cfMRhUaMidTA4xqnxmpt-46" value="Submit exam" style="rounded=1;whiteSpace=wrap;html=1;absoluteArcSize=1;arcSize=14;strokeWidth=2;fillColor=#ffe6cc;strokeColor=#d79b00;" parent="1" vertex="1">
          <mxGeometry x="1030" y="200" width="100" height="100" as="geometry" />
        </mxCell>
        <mxCell id="cfMRhUaMidTA4xqnxmpt-62" style="edgeStyle=orthogonalEdgeStyle;rounded=0;orthogonalLoop=1;jettySize=auto;html=1;exitX=1;exitY=0.5;exitDx=0;exitDy=0;exitPerimeter=0;entryX=0;entryY=0.5;entryDx=0;entryDy=0;entryPerimeter=0;" parent="1" source="cfMRhUaMidTA4xqnxmpt-48" target="cfMRhUaMidTA4xqnxmpt-23" edge="1">
          <mxGeometry relative="1" as="geometry" />
        </mxCell>
        <mxCell id="cfMRhUaMidTA4xqnxmpt-107" style="edgeStyle=orthogonalEdgeStyle;rounded=0;orthogonalLoop=1;jettySize=auto;html=1;exitX=0.5;exitY=0;exitDx=0;exitDy=0;exitPerimeter=0;entryX=0.75;entryY=0;entryDx=0;entryDy=0;" parent="1" source="cfMRhUaMidTA4xqnxmpt-48" target="cfMRhUaMidTA4xqnxmpt-14" edge="1">
          <mxGeometry relative="1" as="geometry" />
        </mxCell>
        <mxCell id="cfMRhUaMidTA4xqnxmpt-48" value="New exam?" style="strokeWidth=2;html=1;shape=mxgraph.flowchart.decision;whiteSpace=wrap;" parent="1" vertex="1">
          <mxGeometry x="540" y="350" width="100" height="100" as="geometry" />
        </mxCell>
        <mxCell id="cfMRhUaMidTA4xqnxmpt-69" style="edgeStyle=orthogonalEdgeStyle;rounded=0;orthogonalLoop=1;jettySize=auto;html=1;exitX=0.5;exitY=1;exitDx=0;exitDy=0;exitPerimeter=0;entryX=0.5;entryY=0;entryDx=0;entryDy=0;" parent="1" source="cfMRhUaMidTA4xqnxmpt-49" target="cfMRhUaMidTA4xqnxmpt-42" edge="1">
          <mxGeometry relative="1" as="geometry" />
        </mxCell>
        <mxCell id="cfMRhUaMidTA4xqnxmpt-71" style="edgeStyle=orthogonalEdgeStyle;rounded=0;orthogonalLoop=1;jettySize=auto;html=1;exitX=0.5;exitY=1;exitDx=0;exitDy=0;exitPerimeter=0;entryX=0.5;entryY=0;entryDx=0;entryDy=0;entryPerimeter=0;" parent="1" source="cfMRhUaMidTA4xqnxmpt-49" target="cfMRhUaMidTA4xqnxmpt-41" edge="1">
          <mxGeometry relative="1" as="geometry" />
        </mxCell>
        <mxCell id="cfMRhUaMidTA4xqnxmpt-99" style="edgeStyle=orthogonalEdgeStyle;rounded=0;orthogonalLoop=1;jettySize=auto;html=1;exitX=0.5;exitY=0;exitDx=0;exitDy=0;exitPerimeter=0;entryX=0.25;entryY=0;entryDx=0;entryDy=0;" parent="1" source="cfMRhUaMidTA4xqnxmpt-49" target="cfMRhUaMidTA4xqnxmpt-14" edge="1">
          <mxGeometry relative="1" as="geometry" />
        </mxCell>
        <mxCell id="cfMRhUaMidTA4xqnxmpt-49" value="Has completed exam(s)?" style="strokeWidth=2;html=1;shape=mxgraph.flowchart.decision;whiteSpace=wrap;" parent="1" vertex="1">
          <mxGeometry x="180" y="345" width="110" height="110" as="geometry" />
        </mxCell>
        <mxCell id="cfMRhUaMidTA4xqnxmpt-54" value="No" style="text;html=1;align=center;verticalAlign=middle;resizable=0;points=[];autosize=1;" parent="1" vertex="1">
          <mxGeometry x="495" y="100" width="30" height="20" as="geometry" />
        </mxCell>
        <mxCell id="cfMRhUaMidTA4xqnxmpt-56" value="Yes" style="text;html=1;align=center;verticalAlign=middle;resizable=0;points=[];autosize=1;" parent="1" vertex="1">
          <mxGeometry x="440" y="160" width="30" height="20" as="geometry" />
        </mxCell>
        <mxCell id="cfMRhUaMidTA4xqnxmpt-63" value="Yes" style="text;html=1;align=center;verticalAlign=middle;resizable=0;points=[];autosize=1;" parent="1" vertex="1">
          <mxGeometry x="660" y="400" width="30" height="20" as="geometry" />
        </mxCell>
        <mxCell id="cfMRhUaMidTA4xqnxmpt-72" value="Yes" style="text;html=1;align=center;verticalAlign=middle;resizable=0;points=[];autosize=1;" parent="1" vertex="1">
          <mxGeometry x="230" y="460" width="30" height="20" as="geometry" />
        </mxCell>
        <mxCell id="cfMRhUaMidTA4xqnxmpt-80" value="No" style="text;html=1;align=center;verticalAlign=middle;resizable=0;points=[];autosize=1;" parent="1" vertex="1">
          <mxGeometry x="985" y="30" width="30" height="20" as="geometry" />
        </mxCell>
        <mxCell id="cfMRhUaMidTA4xqnxmpt-81" value="Yes" style="text;html=1;align=center;verticalAlign=middle;resizable=0;points=[];autosize=1;" parent="1" vertex="1">
          <mxGeometry x="1080" y="160" width="30" height="20" as="geometry" />
        </mxCell>
        <mxCell id="cfMRhUaMidTA4xqnxmpt-87" value="No" style="text;html=1;align=center;verticalAlign=middle;resizable=0;points=[];autosize=1;" parent="1" vertex="1">
          <mxGeometry x="1080" y="740" width="30" height="20" as="geometry" />
        </mxCell>
        <mxCell id="cfMRhUaMidTA4xqnxmpt-88" value="Yes" style="text;html=1;align=center;verticalAlign=middle;resizable=0;points=[];autosize=1;" parent="1" vertex="1">
          <mxGeometry x="985" y="680" width="30" height="20" as="geometry" />
        </mxCell>
        <mxCell id="cfMRhUaMidTA4xqnxmpt-95" value="No" style="text;html=1;align=center;verticalAlign=middle;resizable=0;points=[];autosize=1;" parent="1" vertex="1">
          <mxGeometry x="550" y="330" width="30" height="20" as="geometry" />
        </mxCell>
        <mxCell id="cfMRhUaMidTA4xqnxmpt-100" value="No" style="text;html=1;align=center;verticalAlign=middle;resizable=0;points=[];autosize=1;" parent="1" vertex="1">
          <mxGeometry x="305" y="325" width="30" height="20" as="geometry" />
        </mxCell>
        <mxCell id="cfMRhUaMidTA4xqnxmpt-102" value="Sign out" style="strokeWidth=2;html=1;shape=mxgraph.flowchart.terminator;whiteSpace=wrap;fillColor=#f8cecc;strokeColor=#b85450;" parent="1" vertex="1">
          <mxGeometry x="505" y="545" width="100" height="60" as="geometry" />
        </mxCell>
      </root>
    </mxGraphModel>
  </diagram>
</mxfile>
